<svg viewBox="0 0 14 40" xmlns="http://www.w3.org/2000/svg" data-logo="logo">
            <g transform="translate(0, 0) rotate(0)" id="logogram" style="opacity: 1;"><path fill="#546C5C" d="M13.399 7.16547C13.399 5.44156 12.7143 3.78825 11.4953 2.56927C10.2763 1.35028 8.62296 0.665466 6.89905 0.665466C5.17514 0.665466 3.52184 1.35028 2.30285 2.56927C1.08387 3.78825 0.399048 5.44156 0.399048 7.16547V26.8208L5.75199 30.6563V40H8.04611V30.6563L13.399 26.8208V7.16547ZM11.1049 18.1581L8.04611 21.2169V18.3493L11.1049 15.2905V18.1581ZM2.74096 15.2905L5.79978 18.3493V21.2169L2.74096 18.1581V15.2905ZM11.1049 12.0405L6.89905 16.2463L2.69317 11.9449V9.07723L6.89905 13.2831L11.1049 9.07723V12.0405ZM6.89905 2.95958C7.82404 2.96367 8.72219 3.27088 9.45591 3.83413C10.1897 4.39739 10.7185 5.18563 10.9615 6.07815L6.89905 10.1287L2.83655 6.07815C3.07067 5.17675 3.59572 4.37781 4.33027 3.80531C5.06482 3.2328 5.96777 2.91871 6.89905 2.91178V2.95958ZM2.69317 25.6618V21.3603L5.75199 24.4191V27.8364L2.69317 25.6618ZM8.04611 27.8484V24.4191L11.1049 21.3603V25.6498L8.04611 27.8484Z"></path></g>
            <g transform="translate(14, 20)" id="logotype" style="opacity: 1;"></g>
            
          </svg>